# xmcd
#
# Track frame offsets: 
#        150
#        18814
#        35552
#        51011
#        66510
#        83232
#        100721
#        119744
#        138993
#        155505
#        174444
#        191783
#
# Disc length: 2827 seconds
#
# Revision: 2
# Processed by: cddbd v1.5.2PL0 Copyright (c) Steve Scherf et al.
# Submitted via: ExactAudioCopy v1.3
#
DISCID=a20b090c
DTITLE=Devil You Know - The Beauty of Destruction
DYEAR=2014
DGENRE=Metalcore
TTITLE0=A New Beginning
TTITLE1=My Own
TTITLE2=Embracing the Torture
TTITLE3=For the Dead and Broken
TTITLE4=Seven Years Alone
TTITLE5=It's Over
TTITLE6=A Mind Insane
TTITLE7=Crawl from the Dark
TTITLE8=The Killer
TTITLE9=I Am the Nothing
TTITLE10=Shut It Down
TTITLE11=As Bright as the Darkness
EXTD=
EXTT0=
EXTT1=
EXTT2=
EXTT3=
EXTT4=
EXTT5=
EXTT6=
EXTT7=
EXTT8=
EXTT9=
EXTT10=
EXTT11=
PLAYORDER=
